name Walk2.mot
datacolumns 19
datarows 20
range 1.92000000 2.01500000
endheader

                time	   L_ground_force_vx	   L_ground_force_vy	   L_ground_force_vz	   L_ground_force_px	   L_ground_force_py	   L_ground_force_pz	   R_ground_force_vx	   R_ground_force_vy	   R_ground_force_vz	   R_ground_force_px	   R_ground_force_py	   R_ground_force_pz	   L_ground_torque_x	   L_ground_torque_y	   L_ground_torque_z	   R_ground_torque_x	   R_ground_torque_y	   R_ground_torque_z	
          1.92000000	         -0.00000001	         -0.00000003	          0.00000000	          0.00000000	          0.00000000	          0.00000000	         -1.45530535	         -6.44807467	         -0.06588733	          0.01153016	          0.00000000	          0.00183138	          0.00000000	          0.00000000	          0.00000000	          0.00000000	          0.32202055	          0.00000000	
          1.92500000	         -0.00000001	         -0.00000002	          0.00000000	          0.00000000	          0.00000000	          0.00000000	         -1.42098874	         -6.13348431	         -0.09879302	         -0.00368403	          0.00000000	          0.00013707	          0.00000000	          0.00000000	          0.00000000	          0.00000000	          0.31373219	          0.00000000	
          1.93000000	         -0.00000001	         -0.00000001	          0.00000000	          0.00000000	          0.00000000	          0.00000000	         -1.28659914	         -5.44665916	         -0.11208146	         -0.01314924	          0.00000000	         -0.00096031	          0.00000000	          0.00000000	          0.00000000	          0.00000000	          0.28360460	          0.00000000	
          1.93500000	         -0.00000000	         -0.00000001	          0.00000000	          0.00000000	          0.00000000	          0.00000000	         -1.09866326	         -4.57544662	         -0.11173880	         -0.01817914	          0.00000000	         -0.00158808	          0.00000000	          0.00000000	          0.00000000	          0.00000000	          0.24185467	          0.00000000	
          1.94000000	         -0.00000000	         -0.00000001	          0.00000000	          0.00000000	          0.00000000	          0.00000000	         -0.89125264	         -3.65489238	         -0.10268187	         -0.01996697	          0.00000000	         -0.00186506	          0.00000000	          0.00000000	          0.00000000	          0.00000000	          0.19595347	          0.00000000	
          1.94500000	         -0.00000000	         -0.00000000	          0.00000000	          0.00000000	          0.00000000	          0.00000000	         -0.68775692	         -2.77550099	         -0.08875294	         -0.01953433	          0.00000000	         -0.00189518	          0.00000000	          0.00000000	          0.00000000	          0.00000000	          0.15102036	          0.00000000	
          1.95000000	         -0.00000000	         -0.00000000	          0.00000000	          0.00000000	          0.00000000	          0.00000000	         -0.50286580	         -1.99205576	         -0.07280130	         -0.01771195	          0.00000000	         -0.00176461	          0.00000000	          0.00000000	          0.00000000	          0.00000000	          0.11026175	          0.00000000	
          1.95500000	         -0.00000000	          0.00000000	         -0.00000000	          0.00000000	          0.00000000	          0.00000000	         -0.34452810	         -1.33209998	         -0.05681412	         -0.01514250	          0.00000000	         -0.00154132	          0.00000000	          0.00000000	          0.00000000	          0.00000000	          0.07540367	          0.00000000	
          1.96000000	          0.00000000	          0.00000000	         -0.00000000	          0.00000000	          0.00000000	         -0.00000000	         -0.21574120	         -0.80353013	         -0.04206855	         -0.01229717	          0.00000000	         -0.00127623	          0.00000000	          0.00000000	          0.00000000	          0.00000000	          0.04708634	          0.00000000	
          1.96500000	          0.00000000	          0.00000000	         -0.00000000	          0.00000000	          0.00000000	         -0.00000000	         -0.11609013	         -0.40101900	         -0.02928538	         -0.00949995	          0.00000000	         -0.00100529	          0.00000000	          0.00000000	          0.00000000	          0.00000000	          0.02520302	          0.00000000	
          1.97000000	          0.00000000	          0.00000000	         -0.00000000	          0.00000000	          0.00000000	         -0.00000000	         -0.04300450	         -0.11118066	         -0.01877166	         -0.00695482	          0.00000000	         -0.00075204	          0.00000000	          0.00000000	          0.00000000	          0.00000000	          0.00917642	          0.00000000	
          1.97500000	          0.00000000	          0.00000000	         -0.00000000	         -0.00000000	          0.00000000	         -0.00000000	          0.00726503	          0.08348010	         -0.01054481	         -0.00477264	          0.00000000	         -0.00053016	          0.00000000	          0.00000000	          0.00000000	          0.00000000	         -0.00182687	          0.00000000	
          1.98000000	          0.00000000	          0.00000000	         -0.00000000	         -0.00000000	          0.00000000	         -0.00000000	          0.03892733	          0.20171001	         -0.00443512	         -0.00299579	          0.00000000	         -0.00034594	          0.00000000	          0.00000000	          0.00000000	          0.00000000	         -0.00873858	          0.00000000	
          1.98500000	          0.00000000	          0.00000000	         -0.00000000	         -0.00000000	          0.00000000	         -0.00000000	          0.05615307	          0.26157574	         -0.00016633	         -0.00161940	          0.00000000	         -0.00020045	          0.00000000	         -0.00000000	          0.00000000	          0.00000000	         -0.01247982	          0.00000000	
          1.99000000	          0.00000000	          0.00000000	         -0.00000000	         -0.00000000	          0.00000000	         -0.00000000	          0.06275857	          0.27927899	          0.00258432	         -0.00060867	          0.00000000	         -0.00009129	          0.00000000	         -0.00000000	          0.00000000	          0.00000000	         -0.01389199	          0.00000000	
          1.99500000	          0.00000000	          0.00000000	         -0.00000000	         -0.00000000	          0.00000000	         -0.00000000	          0.06203111	          0.26854415	          0.00414387	          0.00008763	          0.00000000	         -0.00001407	          0.00000000	         -0.00000000	          0.00000000	          0.00000000	         -0.01369891	          0.00000000	
          2.00000000	          0.00000000	          0.00000000	         -0.00000000	         -0.00000000	          0.00000000	         -0.00000000	          0.05665869	          0.24042151	          0.00481624	          0.00052722	          0.00000000	          0.00003656	          0.00000000	         -0.00000000	          0.00000000	          0.00000000	         -0.01249167	          0.00000000	
          2.00500000	          0.00000000	          0.00000000	         -0.00000000	         -0.00000000	          0.00000000	         -0.00000000	          0.04873245	          0.20337257	          0.00486652	          0.00076743	          0.00000000	          0.00006614	          0.00000000	         -0.00000000	          0.00000000	          0.00000000	         -0.01072955	          0.00000000	
          2.01000000	          0.00000000	          0.00000000	         -0.00000000	         -0.00000000	          0.00000000	         -0.00000000	          0.03979535	          0.16352950	          0.00451388	          0.00086077	          0.00000000	          0.00007988	          0.00000000	         -0.00000000	          0.00000000	          0.00000000	         -0.00875096	          0.00000000	
          2.01500000	          0.00000000	          0.00000000	         -0.00000000	         -0.00000000	          0.00000000	         -0.00000000	          0.03091683	          0.12504570	          0.00393074	          0.00085255	          0.00000000	          0.00008237	          0.00000000	         -0.00000000	          0.00000000	          0.00000000	         -0.00679003	          0.00000000	
